<svg width="52" height="25" viewBox="0 0 52 25" fill="none" xmlns="http://www.w3.org/2000/svg">
<path d="M21.8067 24.5043L0.317749 24.5125V24.4576C0.317749 24.4274 0.352022 24.2316 0.39387 24.0225C0.435793 23.8134 0.500889 23.4808 0.538687 23.2834C0.576336 23.086 0.640832 22.7506 0.681855 22.5379C0.722953 22.3254 0.791274 21.9713 0.833647 21.7511C0.875945 21.531 0.942241 21.183 0.981014 20.9781C1.01979 20.773 1.08436 20.4375 1.12471 20.2326C1.16498 20.0276 1.23375 19.6736 1.27747 19.4458C1.32112 19.218 1.38749 18.8701 1.42499 18.6727C1.46249 18.4752 1.52204 18.1709 1.55736 17.9964C1.59261 17.8217 1.63768 17.5856 1.65733 17.4717C1.67705 17.3579 1.74087 17.0224 1.79915 16.7263C1.85742 16.4302 1.92161 16.0947 1.94201 15.9809C1.96234 15.8669 2.02691 15.5314 2.08556 15.2354C2.14413 14.9393 2.20847 14.6039 2.22857 14.4899C2.24867 14.3761 2.31339 14.0406 2.37234 13.7445C2.43144 13.4483 2.49518 13.1191 2.51393 13.0129C2.53283 12.9066 2.58443 12.6333 2.62868 12.4055C2.67285 12.1777 2.75655 11.7491 2.81459 11.453C2.87272 11.1568 2.97201 10.6412 3.03523 10.3071C3.0986 9.97305 3.17427 9.57554 3.20345 9.42371C3.23255 9.27189 3.28527 8.9985 3.32059 8.81626C3.35591 8.63403 3.41996 8.30482 3.46301 8.08469C3.50606 7.8644 3.57603 7.50415 3.61855 7.28394C3.66115 7.06381 3.7267 6.7221 3.76427 6.52474C3.80184 6.3273 3.86596 5.9981 3.90676 5.79309C3.94756 5.58809 4.01775 5.22776 4.06275 4.99242C4.10775 4.757 4.18312 4.39675 4.23022 4.19174C4.27732 3.98674 4.34391 3.73826 4.37826 3.63962C4.41253 3.54082 4.50725 3.32698 4.5887 3.16409L4.73682 2.86817L4.87143 2.68092C4.94538 2.57805 5.0776 2.4154 5.16512 2.31955C5.25264 2.22369 5.40023 2.07943 5.4933 1.99902C5.58622 1.91854 5.72084 1.80994 5.79231 1.75772C5.86386 1.70549 6.00433 1.61401 6.10444 1.55446C6.20456 1.49491 6.34511 1.41697 6.41658 1.38122C6.48812 1.34548 6.63444 1.28011 6.74169 1.23609C6.84893 1.19214 7.05374 1.11834 7.19676 1.07224C7.33978 1.02607 7.60834 0.956483 7.79351 0.917712C7.97867 0.87886 8.27116 0.826952 8.44372 0.802351L8.75728 0.757609L30.2592 0.749011L51.761 0.740173V0.795107C51.761 0.82528 51.7265 1.02105 51.6844 1.23012C51.6422 1.43918 51.5718 1.79665 51.5278 2.02442C51.4838 2.2522 51.4198 2.58148 51.3853 2.75607C51.3508 2.93074 51.2856 3.26616 51.2403 3.50149C51.1951 3.73691 51.1254 4.09724 51.0856 4.30217C51.0458 4.50717 50.9812 4.84267 50.9422 5.04759C50.9032 5.25268 50.8382 5.58809 50.798 5.79309C50.7576 5.9981 50.6952 6.32117 50.659 6.51097C50.6229 6.70077 50.5575 7.04239 50.5138 7.27016C50.47 7.49794 50.3997 7.85827 50.3576 8.07084C50.3154 8.28341 50.2513 8.61269 50.215 8.80249C50.1785 8.99229 50.1132 9.33391 50.0696 9.56168C50.026 9.78946 49.9558 10.1498 49.9137 10.3624C49.8715 10.575 49.8088 10.898 49.7741 11.0802C49.7396 11.2624 49.6744 11.6041 49.6294 11.8394C49.5843 12.0748 49.5188 12.4165 49.4836 12.5988C49.4483 12.7809 49.3856 13.104 49.344 13.3165C49.3023 13.5292 49.2312 13.8957 49.1859 14.131C49.1405 14.3664 49.0756 14.7018 49.0417 14.8765C49.0077 15.051 48.9441 15.3803 48.9003 15.608C48.8566 15.836 48.787 16.1961 48.7456 16.4088C48.7043 16.6213 48.6395 16.9568 48.6016 17.1543C48.5638 17.3516 48.4978 17.6933 48.4553 17.9135C48.4126 18.1336 48.3431 18.4939 48.3006 18.7141C48.2582 18.9343 48.1946 19.2636 48.1592 19.4458C48.1239 19.628 48.0594 19.9634 48.0158 20.1912C47.9723 20.419 47.9013 20.778 47.8583 20.9889L47.78 21.3724L47.6867 21.6376C47.6354 21.7836 47.5582 21.9775 47.5152 22.0687C47.4723 22.1597 47.3848 22.3205 47.3208 22.4259C47.2567 22.5312 47.1675 22.6662 47.1225 22.7258C47.0775 22.7854 46.942 22.9394 46.8212 23.0681L46.602 23.3017L46.3909 23.461C46.2748 23.5485 46.1497 23.6376 46.113 23.6589C46.0763 23.6801 45.9364 23.756 45.8022 23.8273C45.668 23.8987 45.4784 23.9894 45.3809 24.029C45.2834 24.0687 45.0903 24.1362 44.9518 24.1789C44.8133 24.2218 44.6648 24.264 44.6219 24.2727C44.5789 24.2815 44.4301 24.3141 44.2909 24.3455C44.1517 24.3768 43.8709 24.4235 43.6667 24.4493L43.2955 24.4962L21.8067 24.5043ZM14.1613 18.6037H14.7204L14.7362 18.56C14.745 18.536 14.752 18.4795 14.752 18.4345C14.752 18.3895 14.7705 18.226 14.793 18.071C14.8155 17.9159 14.8683 17.5594 14.9105 17.2785C14.9526 16.9975 15.0156 16.5751 15.0505 16.3398C15.0854 16.1043 15.1281 15.8031 15.1454 15.6702C15.1625 15.5373 15.1835 15.4287 15.1919 15.4287C15.2003 15.4287 15.2365 15.4873 15.2723 15.5591L15.3372 15.6895L15.4814 15.8438L15.6256 15.998L15.803 16.0734L15.9805 16.1488L16.192 16.178L16.4036 16.207L16.672 16.1896L16.9405 16.1721L17.2312 16.0922L17.5219 16.0123L17.6779 15.9368C17.7638 15.8952 17.9159 15.8045 18.016 15.7352L18.1981 15.6094L18.3678 15.4292C18.4612 15.3303 18.5929 15.1714 18.6604 15.0763C18.728 14.9812 18.7833 14.8965 18.7833 14.8881C18.7833 14.8796 18.8165 14.8207 18.8571 14.7572C18.8976 14.6937 18.9806 14.5175 19.0415 14.3657C19.1025 14.2138 19.1976 13.9405 19.2531 13.7583L19.3538 13.4269L19.406 13.14C19.4346 12.9822 19.4715 12.7213 19.4879 12.5602L19.5177 12.2674L19.5005 12.019L19.4833 11.7705L19.429 11.5219L19.3748 11.2735L19.2869 11.0875L19.1991 10.9014L19.0293 10.7104L18.8597 10.5194L18.6589 10.4093L18.4582 10.2992L18.2371 10.2429L18.016 10.1868L17.7949 10.1696L17.5739 10.1524L17.3277 10.1824L17.0813 10.2124L16.8804 10.267L16.6794 10.3214L16.5047 10.4073C16.4088 10.4543 16.269 10.5345 16.1943 10.5853C16.1195 10.6361 16.0423 10.6944 16.0228 10.715C16.0034 10.7357 15.9567 10.774 15.9192 10.7999L15.8509 10.8474L15.8986 10.6049C15.9249 10.4715 15.9468 10.3469 15.9474 10.3278L15.9484 10.2933H15.4715H14.9948L14.9112 10.8525C14.8652 11.16 14.7926 11.6351 14.7498 11.9085C14.7071 12.1818 14.6425 12.5918 14.6065 12.8196C14.5705 13.0473 14.5063 13.4511 14.4637 13.7169C14.4211 13.9826 14.3509 14.4051 14.3074 14.6556C14.264 14.9061 14.2005 15.2727 14.1661 15.4701C14.1319 15.6675 14.0672 16.0402 14.0227 16.2983C13.9781 16.5565 13.9064 16.9665 13.8634 17.2095C13.8203 17.4524 13.7504 17.8375 13.7078 18.0653C13.6652 18.2931 13.6242 18.5075 13.6163 18.5415L13.6021 18.6037H14.1613ZM16.5686 15.4116L16.3515 15.4255L16.2096 15.3988L16.0677 15.3722L15.9235 15.3024L15.7793 15.2325L15.6787 15.1303L15.5779 15.0284L15.5198 14.8903C15.4878 14.8144 15.4468 14.6854 15.4286 14.6036L15.3954 14.4551L15.4087 14.2171L15.422 13.9792L15.489 13.6065C15.5258 13.4015 15.592 13.0163 15.636 12.7506C15.68 12.4849 15.7468 12.0954 15.7842 11.8853L15.8522 11.5031L16.0013 11.3715C16.0833 11.2991 16.2132 11.202 16.29 11.1558L16.4295 11.0717L16.6115 11.0119L16.7936 10.9521L17.0277 10.9375L17.2618 10.9229L17.4524 10.9661L17.643 11.0091L17.7775 11.0749L17.912 11.1407L18.0248 11.261L18.1376 11.3814L18.1984 11.5089C18.2319 11.579 18.2789 11.7162 18.3029 11.8138L18.3464 11.9913L18.3331 12.5159L18.3197 13.0405L18.253 13.3506C18.2162 13.5211 18.1463 13.782 18.0976 13.9303L18.009 14.2001L17.9004 14.4184C17.8407 14.5385 17.7487 14.7007 17.6959 14.779C17.6431 14.8572 17.5589 14.9587 17.5088 15.0042C17.4588 15.0499 17.3749 15.1213 17.3225 15.1628L17.2272 15.2384L17.0065 15.3181L16.7858 15.3978L16.5686 15.4116ZM21.9692 16.1706L22.2553 16.1741L22.5413 16.1464C22.6987 16.1312 22.9562 16.0994 23.1135 16.0758C23.2709 16.0523 23.5427 15.9996 23.7176 15.9589L24.0355 15.8846L24.0514 15.7601C24.0601 15.6917 24.0958 15.488 24.1307 15.3075L24.1942 14.9791L24.1801 14.9643L24.1662 14.9495L24.069 14.9992C24.0155 15.0266 23.849 15.092 23.699 15.1445L23.4261 15.2399L23.1398 15.2989L22.8535 15.3577L22.3983 15.3588L21.9432 15.3595L21.7871 15.3067C21.7013 15.2776 21.5751 15.2244 21.5066 15.1884L21.3822 15.123L21.2794 15.0245L21.1767 14.9259L21.0965 14.7773L21.0164 14.6285L20.9661 14.442L20.9159 14.2555L20.9156 13.9103L20.9152 13.565L20.9597 13.2571L21.0044 12.9491L21.3958 12.9297L21.7871 12.9102L23.2338 12.9202L24.6805 12.93L24.7242 12.7333C24.7482 12.6251 24.785 12.4015 24.8058 12.2364L24.8438 11.9361L24.8446 11.6835L24.8454 11.4309L24.8043 11.2423L24.763 11.0538L24.6948 10.929C24.6575 10.8603 24.5914 10.7608 24.5482 10.7078C24.505 10.6549 24.4279 10.5802 24.3768 10.5419C24.3256 10.5036 24.2254 10.4392 24.1538 10.3988L24.0238 10.3254L23.7966 10.2673L23.5694 10.2093L23.2895 10.1808L23.0095 10.1524L22.7494 10.1704L22.4894 10.1883L22.1772 10.2519L21.8652 10.3156L21.67 10.3983C21.5628 10.4438 21.3989 10.5269 21.306 10.5829C21.213 10.6389 21.0843 10.7299 21.02 10.7853C20.9555 10.8407 20.844 10.9483 20.7723 11.0245C20.7004 11.1008 20.5941 11.2376 20.5361 11.3287C20.478 11.4199 20.3891 11.5813 20.3383 11.6876C20.2876 11.794 20.2216 11.943 20.1915 12.019C20.1615 12.0948 20.1068 12.2502 20.0701 12.364C20.0334 12.4779 19.9757 12.6954 19.942 12.8473C19.9081 12.9991 19.8619 13.249 19.839 13.4026L19.7975 13.6821L19.798 14.0929L19.7983 14.5037L19.8379 14.6832C19.8595 14.7819 19.9012 14.9311 19.9302 15.0145C19.9592 15.098 20.0131 15.2223 20.0497 15.2906C20.0863 15.3589 20.1646 15.4689 20.2235 15.5351C20.2825 15.6013 20.3892 15.7017 20.4608 15.7581C20.5323 15.8146 20.6596 15.8942 20.7437 15.9348L20.8966 16.0086L21.1098 16.0634C21.227 16.0934 21.404 16.1291 21.5031 16.1426C21.6021 16.1561 21.8118 16.1687 21.9692 16.1706ZM22.459 12.2812C21.739 12.2812 21.1499 12.2758 21.1499 12.269C21.1499 12.2624 21.1807 12.1661 21.2183 12.055C21.2557 11.944 21.3217 11.7789 21.3647 11.688L21.4431 11.5226L21.6151 11.341L21.7871 11.1593L21.9562 11.0735C22.0491 11.0263 22.1721 10.9749 22.2292 10.9593C22.2865 10.9437 22.4503 10.923 22.5933 10.9134L22.8535 10.8956L23.0533 10.9229L23.2529 10.9501L23.398 11.0207L23.5432 11.0912L23.6229 11.1824C23.6666 11.2325 23.7188 11.3063 23.7388 11.3463L23.7751 11.4192L23.7991 11.581L23.8232 11.7428L23.7956 12.012L23.7682 12.2812H22.459ZM30.2398 16.1707L30.5261 16.1741L30.851 16.1332C31.0297 16.1107 31.2676 16.0735 31.3797 16.0504C31.4917 16.0273 31.6731 15.9816 31.7828 15.9488C31.8924 15.9158 31.9917 15.8802 32.0033 15.8697C32.0149 15.8591 32.0458 15.7338 32.0721 15.5912C32.0984 15.4487 32.1315 15.2575 32.1457 15.1664C32.1598 15.0752 32.1672 14.9959 32.162 14.9899C32.1567 14.9839 32.1376 14.9917 32.1194 15.0069C32.1011 15.0224 31.9735 15.0794 31.8357 15.1337L31.5853 15.2324L31.2287 15.3057L30.872 15.3791L30.5689 15.3681L30.2657 15.3572L30.0934 15.2937L29.9212 15.2303L29.7881 15.1068L29.6551 14.9831L29.5667 14.8124L29.4785 14.6418L29.4364 14.4134L29.3944 14.1851L29.3947 13.8889L29.3949 13.5927L29.446 13.2338L29.4971 12.8748L29.5511 12.6815C29.5809 12.5752 29.6146 12.451 29.6259 12.4055C29.6374 12.3599 29.685 12.2295 29.732 12.1155C29.7788 12.0017 29.8625 11.8257 29.9179 11.7244L30.0185 11.5404L30.1422 11.4043L30.2659 11.2683L30.3967 11.1821L30.5277 11.0959L30.6959 11.0409C30.7883 11.0107 30.9518 10.9714 31.0591 10.9537L31.2541 10.9214L31.5402 10.9367L31.8263 10.9519L32.1644 11.0238L32.5025 11.0955L32.64 11.15C32.7156 11.1799 32.7808 11.2045 32.7849 11.2045C32.7889 11.2045 32.807 11.102 32.8252 10.9767C32.8433 10.8514 32.8756 10.6453 32.8969 10.5187C32.9182 10.392 32.9305 10.2829 32.9242 10.2763C32.9179 10.2696 32.8163 10.2525 32.6984 10.2382C32.5805 10.224 32.2599 10.1987 31.9861 10.1819L31.4882 10.1515L31.1371 10.1801L30.786 10.2088L30.5259 10.2667L30.2659 10.3248L30.0983 10.3959C30.0062 10.435 29.8713 10.5056 29.7985 10.5527C29.7257 10.5999 29.6331 10.6633 29.5926 10.6936C29.5521 10.724 29.4294 10.8425 29.3198 10.957L29.1207 11.1651L29.0094 11.338C28.9482 11.4332 28.8425 11.6314 28.7743 11.7788L28.6504 12.0466L28.5554 12.3364C28.5032 12.4958 28.4302 12.7567 28.3934 12.9162L28.3263 13.2062L28.3019 13.4684L28.2776 13.7307L28.2779 14.0759L28.2782 14.4209L28.3027 14.6217L28.3272 14.8225L28.4051 15.029L28.483 15.2355L28.573 15.3848L28.663 15.5341L28.806 15.6836L28.9491 15.833L29.1004 15.918L29.2518 16.0029L29.4506 16.0616C29.5599 16.0937 29.7179 16.1308 29.8017 16.1437C29.8855 16.1567 30.0828 16.1689 30.2403 16.1707H30.2398ZM34.5179 16.1605L34.869 16.1498L35.09 16.0898L35.3111 16.0297L35.4542 15.9579C35.5329 15.9185 35.6616 15.8406 35.7403 15.7848C35.8189 15.729 35.9408 15.6229 36.0109 15.5491C36.081 15.4752 36.1851 15.3493 36.2421 15.2692C36.2991 15.189 36.3492 15.1271 36.3534 15.1316C36.3576 15.1361 36.3444 15.2637 36.3242 15.4153C36.304 15.5669 36.2872 15.7686 36.2869 15.8635L36.2865 16.036H36.7637H37.2411L37.2557 15.6427L37.2703 15.2492L37.3384 14.7384C37.3759 14.4574 37.4364 14.0412 37.4729 13.8135C37.5093 13.5858 37.5727 13.2007 37.6138 12.9576C37.6548 12.7146 37.7199 12.3357 37.7582 12.1155L37.8281 11.7152L37.8305 11.3695L37.8327 11.0236L37.7592 10.8638L37.6854 10.704L37.5856 10.6022L37.4856 10.5004L37.3218 10.4123L37.1578 10.324L36.9134 10.2663L36.6689 10.2085L36.3325 10.1814L35.996 10.1542L35.5626 10.1828C35.3241 10.1984 34.9887 10.2292 34.8171 10.2515L34.5049 10.2916L34.2922 10.2925L34.0795 10.2933L34.0486 10.4522C34.0316 10.5394 33.9842 10.7468 33.9435 10.9131C33.9026 11.0794 33.8731 11.2193 33.8777 11.2243C33.8823 11.2292 33.9961 11.2017 34.1305 11.1634C34.2649 11.1249 34.5505 11.0618 34.7651 11.023L35.1551 10.9525L35.5062 10.9372L35.8573 10.9217L36.0835 10.9638L36.3097 11.006L36.4606 11.085L36.6116 11.1641L36.6961 11.2979L36.7807 11.4316L36.7795 11.6424L36.7782 11.8533L36.7334 12.0846L36.6886 12.3161L35.7528 12.3197L34.817 12.3232L34.5108 12.4123C34.3423 12.4614 34.1558 12.5265 34.0963 12.557C34.0367 12.5876 33.9772 12.6126 33.9639 12.6126C33.9507 12.6126 33.8505 12.6715 33.7412 12.7437L33.5427 12.8746L33.3863 13.0404C33.3002 13.1316 33.1903 13.2683 33.142 13.3442C33.0937 13.4201 33.0152 13.5787 32.9677 13.6967L32.8811 13.9111L32.8414 14.1521L32.8016 14.3933V14.6462V14.8992L32.8395 15.1099L32.8775 15.3205L32.9479 15.4578C32.9866 15.5333 33.0578 15.644 33.1059 15.7037L33.1935 15.8123L33.3489 15.9126L33.5045 16.0129L33.6826 16.0664C33.7805 16.0957 33.9296 16.1314 34.0139 16.1456L34.167 16.1712L34.5181 16.1605H34.5179ZM34.843 15.3884L34.6349 15.4001L34.4971 15.3627C34.4214 15.3423 34.3063 15.2966 34.2415 15.2612L34.1239 15.197L34.0595 15.1159C34.0242 15.0712 33.9702 14.9836 33.9395 14.9211L33.8838 14.8074L33.8729 14.5421L33.8619 14.2766L33.906 14.1157C33.9302 14.0271 33.9872 13.8734 34.0325 13.7742L34.1148 13.5937L34.2725 13.4276L34.4302 13.2613L34.5975 13.1757L34.7649 13.0902L34.973 13.0377L35.1811 12.9852H35.8313H36.4815L36.5226 13.0033L36.5637 13.0213L36.5291 13.238C36.5101 13.3571 36.4647 13.5726 36.4282 13.7169C36.3918 13.8612 36.3274 14.0732 36.2852 14.1881C36.243 14.3031 36.2084 14.4047 36.2084 14.4139C36.2084 14.4232 36.1656 14.5069 36.1134 14.6L36.0184 14.7693L35.8625 14.9334C35.7768 15.0235 35.6971 15.0973 35.6855 15.0973C35.674 15.0973 35.6215 15.1284 35.5687 15.1664L35.4729 15.2354L35.2619 15.3062L35.051 15.377L34.843 15.3884ZM43.3085 16.1703L43.5555 16.1737L43.7897 16.1333C43.9184 16.1112 44.0822 16.0754 44.1538 16.0539C44.2252 16.0324 44.3541 15.9767 44.4398 15.9301L44.5959 15.8452L44.7302 15.7197L44.8644 15.5943L45.0058 15.3942C45.0836 15.2841 45.1539 15.1754 45.1622 15.1526L45.1773 15.1111L45.1642 15.2492C45.157 15.3251 45.1409 15.4494 45.1282 15.5253C45.1156 15.6013 45.0977 15.7472 45.0882 15.8497L45.071 16.036H45.5812H46.0914V15.8497V15.6634L46.1691 14.9593C46.2118 14.572 46.275 14.0565 46.3095 13.8135C46.344 13.5705 46.3974 13.2227 46.428 13.0405C46.4585 12.8582 46.5128 12.529 46.5483 12.3088C46.584 12.0887 46.6484 11.7035 46.6914 11.453C46.7344 11.2024 46.8033 10.8049 46.8445 10.5695C46.8856 10.3341 46.9496 9.96756 46.9866 9.75499C47.0236 9.54242 47.0899 9.16967 47.1339 8.92677C47.1781 8.68378 47.2423 8.34208 47.2768 8.16741C47.3115 7.9929 47.3398 7.8406 47.3397 7.82929V7.80851H46.7831H46.2264L46.21 7.98111C46.201 8.07601 46.1583 8.38969 46.1154 8.67829C46.0723 8.96673 46.0021 9.42642 45.9594 9.69974C45.9166 9.97305 45.8755 10.2382 45.868 10.2888L45.854 10.3808L45.8101 10.361C45.786 10.3501 45.655 10.3115 45.5192 10.2753L45.2721 10.2094L44.934 10.1815L44.5959 10.1535L44.3098 10.1818L44.0237 10.2101L43.7636 10.28L43.5036 10.3497L43.2565 10.4776L43.0093 10.6056L42.8273 10.7486L42.6453 10.8916L42.488 11.0707C42.4016 11.1691 42.2767 11.3319 42.2104 11.4324L42.0901 11.6152L41.9487 11.9275C41.871 12.0993 41.7763 12.3267 41.7384 12.433C41.7005 12.5394 41.6338 12.775 41.5899 12.9567L41.5103 13.287L41.4711 13.716L41.4319 14.1448L41.4613 14.4899L41.4908 14.8351L41.5255 14.9593C41.5448 15.0276 41.5851 15.1494 41.6153 15.2298L41.6702 15.3762L41.7703 15.52L41.8705 15.6639L41.9848 15.7633L42.0991 15.8627L42.2552 15.945C42.341 15.9902 42.485 16.0487 42.5751 16.0749C42.6652 16.1011 42.8115 16.1326 42.9002 16.1448C42.9889 16.157 43.1725 16.1686 43.3085 16.1703ZM43.7519 15.3872L43.5555 15.3981L43.4231 15.3728C43.3502 15.3589 43.2336 15.3215 43.1638 15.2898L43.0372 15.2322L42.9305 15.1394L42.8239 15.0467L42.7447 14.8857L42.6656 14.7246L42.6293 14.5452L42.5933 14.3657L42.5964 14.0068L42.5994 13.6479L42.6413 13.3303L42.6832 13.0129L42.7484 12.792C42.7843 12.6705 42.8138 12.5559 42.814 12.5372C42.8143 12.5187 42.8495 12.4193 42.8926 12.3165C42.9357 12.2135 43.0075 12.0549 43.0524 11.9637C43.0972 11.8726 43.1811 11.7306 43.2386 11.6481C43.2963 11.5656 43.3989 11.4414 43.4667 11.3719C43.5345 11.3027 43.6423 11.2116 43.7064 11.1698L43.8228 11.0938L44.0273 11.0186L44.2318 10.9435L44.6609 10.9432H45.09L45.3371 11.0161C45.473 11.056 45.6173 11.1024 45.6577 11.1192L45.7313 11.1495L45.717 11.2253C45.7091 11.267 45.6781 11.4502 45.6483 11.6324C45.6184 11.8146 45.5595 12.1625 45.5174 12.4055C45.4754 12.6485 45.4107 13.015 45.3737 13.2199C45.3368 13.4249 45.2834 13.6858 45.2549 13.7997C45.2264 13.9136 45.1862 14.0713 45.1656 14.1502C45.145 14.2291 45.0959 14.3659 45.0566 14.4539C45.0172 14.5421 44.9483 14.6701 44.9034 14.7384C44.8586 14.8067 44.7828 14.9015 44.735 14.9487C44.6871 14.9962 44.5836 15.0803 44.5049 15.1358L44.3619 15.2367L44.1551 15.3064L43.9484 15.376L43.7519 15.3872ZM5.47508 16.036H6.10692L6.15229 15.7393C6.17719 15.576 6.22594 15.2623 6.26051 15.0421C6.29509 14.822 6.35951 14.4119 6.40353 14.131C6.44763 13.8501 6.51377 13.4339 6.55045 13.2062C6.58712 12.9784 6.64547 12.6251 6.67996 12.421C6.71454 12.2168 6.74941 12.0429 6.75736 12.0344L6.77199 12.019H8.47117H10.1703L10.1892 12.0389L10.2081 12.059L10.1785 12.2184C10.1624 12.3061 10.1145 12.5766 10.0721 12.8196C10.0297 13.0625 9.95849 13.4725 9.91372 13.7307C9.8691 13.9888 9.80445 14.3554 9.77018 14.5452C9.73583 14.735 9.66638 15.1325 9.61584 15.4287C9.56536 15.7247 9.52412 15.9825 9.52427 16.0016L9.52457 16.036H10.159H10.7936L10.8216 15.8635C10.8371 15.7686 10.8619 15.5978 10.8769 15.4839C10.8917 15.37 10.9278 15.1276 10.9568 14.9455C10.9859 14.7633 11.0438 14.4029 11.0858 14.1448C11.1276 13.8867 11.1978 13.4456 11.2416 13.1647C11.2854 12.8837 11.3503 12.4738 11.386 12.2537C11.4216 12.0334 11.4851 11.6607 11.527 11.4254C11.569 11.1899 11.6389 10.7924 11.6824 10.5418C11.7259 10.2913 11.7909 9.91238 11.827 9.69974C11.8632 9.48717 11.929 9.102 11.9734 8.84389C12.0178 8.58578 12.0738 8.28452 12.0979 8.17434L12.1417 7.97419H11.4993H10.8568L10.8393 8.10539C10.8298 8.17744 10.7987 8.37942 10.7704 8.55401C10.742 8.72869 10.6905 9.03918 10.6559 9.24419C10.6212 9.44927 10.5579 9.84057 10.5152 10.114C10.4724 10.3872 10.418 10.749 10.3941 10.918L10.3508 11.2251L9.40772 11.2454L8.46457 11.2656L7.67471 11.2457C7.24026 11.2348 6.88238 11.2235 6.87938 11.221C6.87645 11.2183 6.89123 11.111 6.91223 10.9825C6.9333 10.8541 6.97305 10.6308 7.00065 10.4866C7.02825 10.3424 7.08059 10.0566 7.11689 9.85156C7.15326 9.64663 7.19436 9.39195 7.20839 9.28566C7.22234 9.17938 7.25166 9.00232 7.27348 8.89213C7.29531 8.78211 7.33671 8.55019 7.3655 8.37687C7.39423 8.20355 7.4249 8.04202 7.43367 8.01798L7.44942 7.97419H6.81218H6.17487L6.13414 8.21582C6.11164 8.34869 6.08172 8.53809 6.06762 8.63681C6.05345 8.73553 6.00598 9.05232 5.9621 9.34084C5.91823 9.62936 5.85343 10.058 5.81811 10.2933C5.78279 10.5288 5.71859 10.9574 5.67539 11.2458C5.63205 11.5344 5.56072 11.9816 5.5167 12.2397C5.47275 12.498 5.40908 12.8645 5.37518 13.0543C5.34136 13.2441 5.27694 13.6044 5.23194 13.8549C5.18702 14.1056 5.12125 14.4596 5.08607 14.6418C5.05083 14.824 5.0119 15.0352 4.9996 15.1111C4.98715 15.187 4.94696 15.406 4.91006 15.5978C4.87323 15.7895 4.84309 15.9664 4.84309 15.9912V16.036H5.47508ZM12.4706 16.036H13.03L13.0457 15.9924C13.0545 15.9683 13.0615 15.9053 13.0615 15.8524C13.0615 15.7994 13.0968 15.524 13.1397 15.2403C13.1827 14.9566 13.2537 14.4948 13.2976 14.2138C13.3414 13.933 13.4061 13.5229 13.4415 13.3027C13.4768 13.0826 13.5395 12.7161 13.5809 12.4882C13.6223 12.2605 13.6859 11.9064 13.7222 11.7015C13.7584 11.4965 13.8298 11.1064 13.8807 10.8347C13.9316 10.563 13.9796 10.3299 13.9874 10.3166L14.0015 10.2923L13.4358 10.2997L12.8701 10.3071L12.8229 10.6661C12.7971 10.8635 12.7404 11.2549 12.697 11.5357C12.6538 11.8167 12.5882 12.2454 12.5514 12.4882C12.5146 12.7313 12.4505 13.1226 12.4089 13.358C12.3673 13.5933 12.3035 13.9536 12.2672 14.1586C12.2309 14.3637 12.1657 14.7239 12.1224 14.9593C12.079 15.1947 12.0209 15.5052 11.9931 15.6495C11.9653 15.7938 11.9355 15.9398 11.9268 15.9739L11.9112 16.036H12.4706ZM25.5544 16.036H26.1096L26.1263 15.7866C26.1355 15.6495 26.1669 15.373 26.1961 15.1723C26.2254 14.9716 26.2853 14.5714 26.3292 14.2829C26.3731 13.9943 26.4547 13.5141 26.5105 13.2156C26.5664 12.9172 26.6295 12.6206 26.6508 12.5565C26.6722 12.4923 26.6896 12.4229 26.6896 12.4021C26.6896 12.3813 26.7314 12.2679 26.7824 12.1502C26.8334 12.0324 26.9284 11.8522 26.9937 11.7495L27.1123 11.5629L27.2709 11.4069L27.4296 11.251L27.6252 11.1518L27.8209 11.0525L28.1201 11.0543L28.4191 11.056L28.5661 11.1025C28.647 11.1282 28.7201 11.1492 28.7287 11.1492C28.7372 11.1492 28.7442 11.1199 28.7442 11.084C28.7442 11.0482 28.7734 10.8663 28.8092 10.6799C28.8449 10.4935 28.8742 10.3331 28.8742 10.3235C28.8742 10.3139 28.7894 10.2786 28.6857 10.2452C28.582 10.2117 28.4386 10.1767 28.3671 10.1672L28.2371 10.1502L28.068 10.182C27.975 10.1994 27.8368 10.2379 27.7608 10.2676C27.6848 10.2972 27.5593 10.3644 27.4819 10.417C27.4046 10.4696 27.2842 10.572 27.2146 10.6445C27.1447 10.7171 27.0274 10.8635 26.9539 10.9698C26.8802 11.0761 26.8033 11.188 26.7828 11.2183L26.7456 11.2735L26.7682 11.1631C26.7806 11.1023 26.8153 10.9035 26.8451 10.7213C26.875 10.5391 26.9058 10.3682 26.9133 10.3417L26.9272 10.2933H26.4313H25.9354V10.3599C25.9354 10.3965 25.906 10.617 25.8703 10.8499C25.8346 11.0829 25.7755 11.4723 25.7392 11.7152C25.7029 11.9582 25.6384 12.3806 25.596 12.654C25.5535 12.9273 25.4891 13.3187 25.4527 13.5236C25.4163 13.7286 25.3518 14.0889 25.3092 14.3243C25.2668 14.5596 25.196 14.9448 25.1523 15.1802C25.1085 15.4156 25.0561 15.6934 25.0359 15.7979C25.0156 15.9022 24.9991 15.9984 24.9991 16.0117V16.036H25.5544ZM38.7356 16.036H39.3033V15.8516V15.6671L39.3687 15.2096C39.4048 14.9581 39.4641 14.5596 39.5007 14.3243C39.5373 14.0889 39.5828 13.7908 39.602 13.6616C39.6212 13.5326 39.6719 13.2531 39.7147 13.0405C39.7577 12.8278 39.8111 12.5981 39.8337 12.5297C39.8563 12.4614 39.8749 12.3896 39.8751 12.3704C39.8754 12.3511 39.9238 12.2271 39.9826 12.0948L40.0898 11.8541L40.2313 11.6546L40.3726 11.4553L40.5273 11.3318C40.6124 11.2638 40.7493 11.1738 40.8314 11.1315L40.9808 11.0547L41.3059 11.0571L41.631 11.0595L41.759 11.1031L41.8869 11.1467L41.9085 11.1325L41.9301 11.1184L41.9313 11.0303C41.9318 10.9818 41.9596 10.8016 41.9931 10.6296L42.0539 10.3171L41.9855 10.2886C41.9479 10.273 41.8587 10.2407 41.7871 10.2168L41.6571 10.1733L41.423 10.174L41.189 10.1746L40.9982 10.2459L40.8074 10.3171L40.6641 10.4088L40.521 10.5005L40.3347 10.7076L40.1485 10.9146L40.0484 11.0752C39.9934 11.1636 39.945 11.2319 39.9408 11.227C39.9366 11.2223 39.9665 11.0381 40.0072 10.818C40.048 10.5978 40.0819 10.3897 40.0825 10.3555L40.0836 10.2933H39.6024H39.1213V10.311C39.1213 10.3206 39.0973 10.4977 39.068 10.7044C39.0387 10.9111 38.9797 11.3101 38.9372 11.591C38.8945 11.8719 38.8246 12.3254 38.7817 12.5988C38.7389 12.8721 38.6743 13.2635 38.6381 13.4685C38.602 13.6734 38.5379 14.0337 38.4956 14.2691C38.4533 14.5045 38.3839 14.8835 38.3413 15.1112C38.2987 15.3389 38.2421 15.6403 38.2158 15.7807L38.1678 16.036H38.7356ZM13.5706 9.29888L13.7284 9.29944L13.8539 9.25406L13.9796 9.20868L14.0906 9.08902L14.2018 8.96944L14.2602 8.80997L14.3188 8.65059L14.3208 8.41589L14.3229 8.18134L14.2709 8.08963L14.2189 7.99799L14.1283 7.93852L14.0378 7.87897H13.8422H13.6467L13.5136 7.94226L13.3805 8.00548L13.3032 8.09337L13.226 8.18134L13.1652 8.33317L13.1046 8.48499L13.0931 8.72152L13.0817 8.95805L13.1381 9.07564L13.1946 9.19315L13.3037 9.2457L13.4127 9.29816L13.5706 9.29888Z" fill="#B3131B"/>
</svg>
