<svg width="50" height="15" viewBox="0 0 50 15" fill="none" xmlns="http://www.w3.org/2000/svg">
<path d="M10.2537 9.68805C10.2719 9.77998 10.2964 9.87073 10.375 9.98082C11.7364 6.74433 13.0974 3.50844 14.4566 0.276978C15.8387 0.276978 17.2063 0.276978 18.6069 0.276978C18.532 0.455613 18.4697 0.612807 18.4005 0.767887C16.3718 5.3255 14.3409 9.8829 12.3165 14.4425C12.2389 14.6163 12.1465 14.6823 11.9395 14.681C10.7135 14.6707 9.48668 14.6728 8.26048 14.6798C8.0756 14.6813 7.99742 14.6383 7.94797 14.4571C6.92368 10.7042 5.88192 6.95523 4.86707 3.2006" fill="#0052CC"/>
<path d="M4.86708 3.20056C4.68487 2.52677 4.32539 2.06116 3.64251 1.77496C2.51766 1.30415 1.34849 0.976023 0.15409 0.713772C0.101771 0.701995 0.0512815 0.682685 0 0.667035C0 0.632466 0 0.598681 0 0.564094C0.0367294 0.280989 0.226341 0.255106 0.490392 0.256261C2.57079 0.266688 4.65142 0.262246 6.73203 0.262637C7.76515 0.262637 8.47388 0.804531 8.66634 1.76027C9.19881 4.40214 9.72512 7.04516 10.2537 9.68799" fill="#FFC601"/>
<path d="M32.8218 0C33.2666 0.0687469 33.7142 0.122623 34.1543 0.211852C34.5874 0.299908 35.0138 0.421379 35.4419 0.533008C35.5453 0.560045 35.6434 0.604083 35.7646 0.648103C35.535 1.6558 35.3083 2.65404 35.0811 3.65225C34.56 3.49756 34.0615 3.32163 33.5473 3.20383C32.6224 2.99237 31.6781 2.90159 30.7463 3.13759C30.4094 3.22314 30.0704 3.40178 29.8067 3.61846C29.3598 3.9852 29.3592 4.52129 29.7905 4.90424C30.0844 5.16514 30.4291 5.38318 30.7779 5.57764C31.4727 5.96408 32.2023 6.29567 32.8876 6.696C33.8091 7.23441 34.5761 7.92134 34.8833 8.94524C35.3298 10.4328 34.8421 12.4158 33.0822 13.6116C32.0694 14.2993 30.9234 14.6594 29.7038 14.8066C27.7848 15.0385 25.9016 14.8613 24.0676 14.2688C23.9656 14.2359 23.8674 14.1929 23.7377 14.143C23.9749 13.0969 24.2096 12.0587 24.4507 10.9969C24.6058 11.0601 24.7392 11.1105 24.8683 11.1684C26.0029 11.675 27.1994 11.9175 28.4531 11.9038C29.0285 11.8976 29.5921 11.814 30.1112 11.5558C31.0594 11.0846 31.1848 10.1698 30.3495 9.54759C29.9409 9.24265 29.4715 9.00319 29.0061 8.77531C28.2317 8.39603 27.4659 8.01153 26.7925 7.47872C24.8715 5.96003 25.1169 3.83707 26.1564 2.40857C27.0119 1.23421 28.2695 0.61275 29.6988 0.272871C30.1541 0.164137 30.6275 0.124168 31.0914 0.0505896C31.1606 0.0395758 31.2273 0.0171778 31.2954 0C31.8041 0 32.3131 0 32.8218 0Z" fill="#0052CC"/>
<path d="M49.0412 14.6626C47.8008 14.6626 46.6123 14.6626 45.3921 14.6626C45.2768 14.1497 45.1571 13.6364 45.0459 13.1213C44.9162 12.5167 44.9193 12.5163 44.2539 12.5163C42.8643 12.5163 41.4748 12.5197 40.0846 12.5126C39.8909 12.5116 39.7968 12.564 39.7334 12.7416C39.5243 13.3233 39.3004 13.9005 39.0675 14.4745C39.0347 14.5554 38.9188 14.6626 38.8402 14.6636C37.5239 14.6751 36.2076 14.6717 34.8622 14.6717C34.8962 14.5815 34.918 14.51 34.9485 14.4419C36.8841 10.0899 38.8207 5.73779 40.7585 1.38585C41.0868 0.648125 41.6942 0.267887 42.5375 0.266732C43.6268 0.265773 44.7162 0.266342 45.8455 0.266342C46.9095 5.05917 47.9721 9.8464 49.0412 14.6626ZM44.2576 9.57603C43.8581 7.77462 43.4674 6.00912 43.0761 4.2444C43.0556 4.2419 43.0355 4.23938 43.0152 4.23668C42.334 6.00681 41.6531 7.77616 40.96 9.57603C42.0773 9.57603 43.1358 9.57603 44.2576 9.57603Z" fill="#0052CC"/>
<path d="M17.0504 14.6751C18.1484 9.8489 19.2371 5.0613 20.3258 0.276978C21.6501 0.276978 22.9469 0.276978 24.2766 0.276978C24.1711 0.752823 24.0714 1.2109 23.968 1.66801C23.0089 5.89075 22.0464 10.1127 21.0972 14.3378C21.0364 14.6081 20.9338 14.6873 20.6406 14.6823C19.5599 14.6635 18.4787 14.6751 17.3976 14.6751C17.2985 14.6751 17.1998 14.6751 17.0504 14.6751Z" fill="#0052CC"/>
</svg>
