<svg width="47" height="27" viewBox="0 0 47 27" fill="none" xmlns="http://www.w3.org/2000/svg">
<path d="M33.0331 26.7582C40.5724 26.7582 46.6842 21.006 46.6842 13.9102C46.6842 6.8144 40.5724 1.06213 33.0331 1.06213C25.4939 1.06213 19.3821 6.8144 19.3821 13.9102C19.3821 21.006 25.4939 26.7582 33.0331 26.7582Z" fill="#FFC601"/>
<path d="M14.651 26.7582C22.1903 26.7582 28.3021 21.006 28.3021 13.9102C28.3021 6.8144 22.1903 1.06213 14.651 1.06213C7.11178 1.06213 1 6.8144 1 13.9102C1 21.006 7.11178 26.7582 14.651 26.7582Z" fill="#F43735"/>
<path d="M6.31567 12.0772C6.06381 13.4538 5.81215 14.8305 5.55736 16.2236C5.14673 16.2236 4.74337 16.2236 4.30322 16.2236C4.65026 14.2999 4.99522 12.3864 5.34373 10.4547C5.97112 10.4547 6.5881 10.4547 7.28509 10.4547C7.28509 11.5754 7.28509 12.6984 7.28509 13.8219C7.32083 13.8244 7.35698 13.8271 7.39273 13.8299C7.62278 13.1983 7.85303 12.5668 8.08308 11.9354C8.24143 11.5003 8.39313 11.0629 8.56374 10.632C8.59492 10.5528 8.69901 10.4451 8.77196 10.4435C9.39227 10.4284 10.0128 10.4347 10.6938 10.4347C10.3494 12.3763 10.0101 14.2891 9.6674 16.2211C9.22748 16.2211 8.7948 16.2211 8.33347 16.2211C8.56332 14.8657 8.79129 13.5183 9.01945 12.1709C9.00033 12.1662 8.98101 12.1615 8.9621 12.1568C8.91471 12.2687 8.86442 12.3794 8.82078 12.4926C8.37253 13.6544 7.91806 14.814 7.48519 15.9811C7.4058 16.1951 7.29962 16.2674 7.07186 16.2453C6.8921 16.2281 6.70882 16.242 6.485 16.242C6.44489 14.8436 6.40519 13.4662 6.36551 12.0891C6.34872 12.0852 6.33209 12.0811 6.31567 12.0772Z" fill="white"/>
<path d="M41.498 12.0269C41.5938 11.4873 41.6844 10.978 41.779 10.4454C42.2023 10.4454 42.6248 10.4454 43.0809 10.4454C42.983 11.0158 42.8856 11.5877 42.7864 12.1592C42.5649 13.4369 42.3365 14.7135 42.1262 15.9924C42.0949 16.1837 42.0163 16.2287 41.832 16.2225C41.5076 16.2119 41.1824 16.2197 40.8366 16.2197C40.8366 16.0867 40.8366 15.9776 40.8366 15.8655C40.6167 15.9799 40.4247 16.1084 40.2113 16.1857C39.3593 16.4931 38.5151 16.1219 38.2098 15.2696C37.793 14.1046 38.0332 13.0217 38.8555 12.0848C39.6024 11.2338 40.5151 11.2245 41.498 12.0269ZM41.1682 13.5723C41.1412 13.4031 41.1329 13.2286 41.0841 13.0653C40.9432 12.5914 40.4255 12.412 40.0062 12.7054C39.842 12.8202 39.6996 12.9892 39.6059 13.1617C39.3877 13.5633 39.3408 14 39.4081 14.4463C39.4519 14.7366 39.5635 14.9875 39.891 15.0816C40.2102 15.1733 40.545 15.0493 40.7713 14.7614C41.0481 14.4098 41.1518 14.0063 41.1682 13.5723Z" fill="white"/>
<path d="M13.0131 13.2519C13.1735 12.7945 13.0247 12.547 12.538 12.5472C11.9848 12.5474 11.4318 12.6108 10.862 12.648C10.8855 12.5146 10.9161 12.3386 10.9476 12.1625C11.0428 11.6319 11.0383 11.5994 11.6014 11.5269C12.1101 11.4612 12.6382 11.4162 13.1444 11.4711C13.9675 11.5603 14.4474 12.1962 14.3426 12.9705C14.2009 14.0161 14.0424 15.06 13.8811 16.1032C13.8699 16.1763 13.7818 16.2929 13.7236 16.2964C13.4013 16.3154 13.0773 16.3056 12.7381 16.3056C12.7381 16.1605 12.7381 16.0496 12.7381 15.972C12.4187 16.1067 12.1135 16.2882 11.781 16.3649C10.9466 16.557 10.3032 16.1034 10.2112 15.304C10.0761 14.1301 10.8388 13.3394 12.1983 13.2545C12.4705 13.2373 12.745 13.2519 13.0131 13.2519ZM12.8717 14.2455C12.4033 14.1688 12.0073 14.2244 11.7496 14.3908C11.4406 14.5903 11.3437 15.0233 11.5522 15.2741C11.7523 15.5151 12.1966 15.5064 12.4734 15.2447C12.7604 14.9733 12.868 14.6341 12.8717 14.2455Z" fill="white"/>
<path d="M34.2942 13.2482C34.4128 12.7377 34.2898 12.5435 33.7809 12.54C33.2462 12.5361 32.7107 12.6033 32.14 12.6417C32.1835 12.3813 32.2286 12.0661 32.2951 11.7545C32.3065 11.7007 32.4023 11.6436 32.4711 11.6225C33.1091 11.4279 33.758 11.332 34.4276 11.4548C35.2385 11.6039 35.7185 12.2124 35.6094 12.9833C35.4548 14.0759 35.2846 15.1665 35.1175 16.2803C34.753 16.2803 34.3921 16.2803 34.0157 16.2803C34.0157 16.1594 34.0157 16.0392 34.0157 15.8874C33.9027 15.9697 33.8106 16.0407 33.7144 16.1063C33.2121 16.4491 32.5037 16.5058 32.0434 16.2259C31.4821 15.8843 31.4177 15.3505 31.4892 14.7986C31.6091 13.8748 32.342 13.3096 33.4578 13.2503C33.7314 13.2359 34.0066 13.2482 34.2942 13.2482ZM34.1508 14.229C33.7393 14.1782 33.3694 14.1805 33.0338 14.3808C32.7867 14.5283 32.6699 14.7599 32.7385 15.0192C32.777 15.1643 32.9031 15.3421 33.0396 15.3998C33.2963 15.508 33.5569 15.4245 33.7574 15.2263C34.0311 14.956 34.1242 14.6218 34.1508 14.229Z" fill="white"/>
<path d="M21.6051 14.3536C21.5311 14.8203 21.7375 15.1323 22.2057 15.2576C22.7156 15.3939 23.2158 15.3106 23.7102 15.1731C23.8363 15.1379 23.961 15.0986 24.1379 15.0458C24.0635 15.4323 24.0013 15.7881 23.9199 16.1397C23.9074 16.1925 23.8087 16.2485 23.7395 16.2655C23.0793 16.4276 22.4118 16.4751 21.7445 16.3134C20.9401 16.1182 20.4663 15.6165 20.3281 14.8557C20.1442 13.8416 20.3524 12.9043 21.065 12.1026C21.5186 11.5921 22.1103 11.3404 22.8255 11.4218C23.9529 11.5503 24.5651 12.3682 24.4093 13.5155C24.2985 14.3315 24.2985 14.3313 23.4253 14.3319C22.8438 14.3321 22.2624 14.3331 21.6813 14.3346C21.662 14.3347 21.6427 14.3439 21.6051 14.3536ZM21.7098 13.3514C22.1543 13.3514 22.5785 13.3555 23.0022 13.3462C23.0622 13.345 23.1568 13.2875 23.1738 13.2374C23.2909 12.8949 22.9872 12.5022 22.6042 12.4844C22.1217 12.4619 21.7782 12.7794 21.7098 13.3514Z" fill="white"/>
<path d="M31.8219 10.6232C31.7542 11.042 31.6885 11.4478 31.6206 11.8705C31.3436 11.7821 31.0842 11.6773 30.8138 11.617C30.1455 11.4684 29.5701 11.6741 29.1911 12.2112C28.7281 12.8672 28.6023 13.5985 28.7896 14.3591C28.9517 15.0186 29.5745 15.3603 30.2871 15.2131C30.5516 15.1587 30.8078 15.0662 31.0923 14.9838C31.0241 15.3899 30.9631 15.7861 30.8851 16.1798C30.8739 16.236 30.7852 16.314 30.7249 16.3205C30.2721 16.3696 29.8097 16.4717 29.3648 16.4278C28.3515 16.3285 27.7241 15.7683 27.4895 14.8305C27.2457 13.8565 27.3411 12.9001 27.7794 11.991C28.5163 10.4615 30.1 9.92519 31.8219 10.6232Z" fill="white"/>
<path d="M17.7896 11.511C17.7339 11.8809 17.6853 12.2032 17.6319 12.5584C17.3578 12.5469 17.0968 12.5339 16.8358 12.5251C16.3524 12.5091 16.1001 12.5995 16.0602 12.83C15.995 13.2081 16.3321 13.2928 16.5922 13.3957C17.3019 13.6767 17.7493 14.145 17.5124 15.2269C17.3985 15.7474 17.033 16.0703 16.5002 16.1998C15.7452 16.383 14.9886 16.3109 14.2006 16.1669C14.2571 15.8075 14.3097 15.4714 14.3597 15.1517C14.814 15.1914 15.2442 15.2363 15.6754 15.2616C15.8025 15.269 15.9428 15.2409 16.0602 15.1927C16.3433 15.0767 16.3965 14.7701 16.1558 14.5872C15.984 14.4565 15.7774 14.3648 15.5808 14.2647C14.8641 13.8987 14.591 13.3963 14.7253 12.6792C14.8568 11.9757 15.3121 11.5738 16.1006 11.4529C16.6598 11.3673 17.2098 11.4115 17.7896 11.511Z" fill="white"/>
<path d="M18.5499 10.834C19.0054 10.834 19.4098 10.834 19.8384 10.834C19.8034 11.0648 19.7712 11.2784 19.7359 11.5121C19.9468 11.5217 20.1359 11.5301 20.3601 11.5405C20.3086 11.9158 20.2598 12.2728 20.2072 12.6557C19.9855 12.6557 19.7764 12.6557 19.5293 12.6557C19.4479 13.1063 19.3693 13.5361 19.2926 13.9661C19.2521 14.1928 19.2159 14.4201 19.176 14.647C19.1029 15.0626 19.2488 15.2161 19.7008 15.1948C19.7708 15.1917 19.8406 15.1841 19.9499 15.1753C19.904 15.4904 19.8658 15.79 19.8117 16.0871C19.8022 16.1391 19.7311 16.2158 19.6808 16.2213C19.3003 16.2639 18.9121 16.346 18.5381 16.3099C18.0838 16.2663 17.8047 15.9179 17.8245 15.4426C17.8467 14.9087 17.9248 14.3749 18.0123 13.8459C18.1782 12.8437 18.3679 11.8454 18.5499 10.834Z" fill="white"/>
<path d="M36.8026 16.2755C36.3364 16.2755 35.9011 16.2755 35.4512 16.2755C35.7263 14.6901 35.9987 13.1215 36.2737 11.5372C36.6833 11.5372 37.075 11.5372 37.4939 11.5372C37.4671 11.7244 37.4418 11.9018 37.4081 12.139C37.7601 11.7719 38.0565 11.386 38.629 11.4725C38.4715 11.9391 38.3164 12.399 38.1596 12.8633C37.7234 12.8768 37.5359 12.9707 37.4098 13.4141C37.2288 14.0509 37.1099 14.7036 36.9719 15.351C36.9062 15.6588 36.858 15.97 36.8026 16.2755Z" fill="white"/>
<path d="M25.7243 16.2812C25.2594 16.2812 24.8328 16.2812 24.375 16.2812C24.4789 15.667 24.5787 15.0658 24.6828 14.4653C24.8403 13.5568 25.0055 12.6499 25.1553 11.7404C25.1823 11.5755 25.2364 11.5077 25.4215 11.5149C25.7453 11.5276 26.0699 11.5184 26.4176 11.5184C26.3874 11.7281 26.3617 11.9065 26.3276 12.1418C26.6809 11.7707 26.9791 11.3849 27.552 11.4725C27.3932 11.9413 27.2372 12.4021 27.0805 12.8654C26.6561 12.8719 26.4606 12.9662 26.3386 13.3927C26.1541 14.0386 26.0327 14.7006 25.8922 15.3572C25.828 15.6566 25.7823 15.9594 25.7243 16.2812Z" fill="white"/>
<path d="M2.37927 17.7541H2.6064C2.55632 17.6201 2.49626 17.4912 2.45098 17.3553L2.37927 17.7541Z" fill="white"/>
<path d="M26.9481 8.3583C26.1643 6.7751 25.0365 5.3718 23.6602 4.23837C21.2517 2.2054 18.1168 1 14.6569 1C7.14454 1 1.08496 6.72112 1.08496 13.7736C1.08496 20.826 7.14454 26.5472 14.6569 26.5472C18.1168 26.5472 21.2517 25.3418 23.6602 23.3088C24.9601 22.2473 26.0305 20.934 26.7952 19.4587" stroke="#303030" stroke-width="0.8" stroke-miterlimit="10" stroke-linecap="round" stroke-linejoin="round"/>
<path d="M20.3724 8.3583C21.1562 6.7751 22.284 5.3718 23.6603 4.23837C26.0688 2.2054 29.2037 1 32.6636 1C40.1569 1 46.2356 6.72112 46.2356 13.7736C46.2356 20.826 40.1569 26.5472 32.6636 26.5472C29.2037 26.5472 26.0688 25.3418 23.6603 23.3088C22.3604 22.2473 21.29 20.934 20.5062 19.4587" stroke="#303030" stroke-width="0.8" stroke-miterlimit="10" stroke-linecap="round" stroke-linejoin="round"/>
</svg>
